<svg xmlns="http://www.w3.org/2000/svg" xml:space="preserve" viewBox="0 0 1200 110">
  <path fill="#023047" d="M1200 110V64c-48-22-104-32-158-28-70 5-136 33-207 37-74 5-147-17-218-35-69-18-138-25-209-13-37 6-70 18-105 29-92 31-216 70-303 4v52h1200z" opacity=".3"/>
  <path fill="#023047" d="M1200 110V94c-13-21-28-41-48-56-51-39-117-39-177-20-31 11-60 27-89 40-41 19-85 46-131 50-36 3-71-9-99-32-32-25-62-62-103-73-41-10-82 7-119 25s-76 39-117 43c-60 5-114-23-169-39-30-9-59-6-87 7C38 50 13 66 0 89v21h1200z" opacity=".5"/>
  <path fill="#023047" d="M1200 110v-6a933 933 0 0 0-476-37c-43 8-84 21-127 27-59 9-113-12-166-35-59-26-117-44-182-39-87 7-173 46-249 85v5h1200z"/>
</svg>
